<svg width="536" height="886" viewBox="0 0 536 886" fill="none" xmlns="http://www.w3.org/2000/svg">
<path d="M457.879 473.05C406.099 395.96 341.429 365.61 264.709 365.61C187.989 365.61 123.319 395.96 71.5389 473.05C20.3989 549.18 8.58885 655.83 60.3589 655.83C90.4389 655.83 86.1488 621.58 117.179 569.79C115.699 576.92 108.559 615.26 108.559 692.83C108.559 770.4 124.619 835.46 147.769 866.7C168.579 894.77 223.299 889.06 232.459 869.49C238.579 856.44 237.319 839.96 223.429 825.74C221.229 794.54 226.509 755.64 241.069 738.67C241.069 738.67 249.169 742.43 263.929 742.69V742.71C264.199 742.71 264.449 742.7 264.709 742.7C264.969 742.7 265.219 742.71 265.489 742.71V742.69C280.249 742.43 288.349 738.67 288.349 738.67C302.909 755.63 308.189 794.53 305.989 825.74C292.099 839.97 290.849 856.44 296.959 869.49C306.129 889.05 360.839 894.77 381.649 866.7C404.809 835.46 420.859 771.72 420.859 692.83C420.859 613.94 413.719 576.91 412.239 569.79C443.279 621.58 438.979 655.83 469.059 655.83C520.819 655.83 509.019 549.18 457.879 473.05Z" fill="#A3A3A3"/>
<mask id="mask0_119_328" style="mask-type:luminance" maskUnits="userSpaceOnUse" x="26" y="365" width="477" height="521">
<path d="M457.879 473.05C406.099 395.96 341.429 365.61 264.709 365.61C187.989 365.61 123.319 395.96 71.5389 473.05C20.3989 549.18 8.58885 655.83 60.3589 655.83C90.4389 655.83 86.1488 621.58 117.179 569.79C115.699 576.92 108.559 615.26 108.559 692.83C108.559 770.4 124.619 835.46 147.769 866.7C168.579 894.77 223.299 889.06 232.459 869.49C238.579 856.44 237.319 839.96 223.429 825.74C221.229 794.54 226.509 755.64 241.069 738.67C241.069 738.67 249.169 742.43 263.929 742.69V742.71C264.199 742.71 264.449 742.7 264.709 742.7C264.969 742.7 265.219 742.71 265.489 742.71V742.69C280.249 742.43 288.349 738.67 288.349 738.67C302.909 755.63 308.189 794.53 305.989 825.74C292.099 839.97 290.849 856.44 296.959 869.49C306.129 889.05 360.839 894.77 381.649 866.7C404.809 835.46 420.859 771.72 420.859 692.83C420.859 613.94 413.719 576.91 412.239 569.79C443.279 621.58 438.979 655.83 469.059 655.83C520.819 655.83 509.019 549.18 457.879 473.05Z" fill="white"/>
</mask>
<g mask="url(#mask0_119_328)">
<path d="M203.809 826.29C176.249 732.8 220.869 711.05 266.799 711.05C312.729 711.05 349.289 752.97 326.289 836.13C312.499 885.99 386.459 859.56 386.459 859.56C386.459 859.56 373.779 897.41 331.649 904.3C289.519 911.19 233.609 910.43 189.949 901.24C146.289 892.05 142.599 859.03 142.599 859.03C142.599 859.03 223.489 893.09 203.799 826.3L203.809 826.29Z" fill="#777777"/>
<path d="M448.599 618C460.339 657.01 498.429 632.9 498.429 632.9L505.279 702.6L416.009 764.84C416.009 764.84 412.079 682.51 405.359 635.88C397.189 579.2 387.489 508.22 387.489 508.22C387.489 508.22 430.669 558.47 448.599 618Z" fill="#777777"/>
<path d="M421.399 590.64C437.649 628 416.009 764.84 416.009 764.84C416.009 764.84 412.079 682.51 405.359 635.88C397.189 579.2 387.489 508.22 387.489 508.22C387.489 508.22 400.979 543.67 421.399 590.65V590.64Z" fill="#666666"/>
<path d="M375.099 392.88L405.279 411.65C405.279 411.65 392.809 425.58 282.619 424.56C202.619 423.82 158.029 390.83 158.029 390.83L375.099 392.89V392.88Z" fill="#666666"/>
<path d="M80.2589 618C68.5189 657.01 30.4289 632.9 30.4289 632.9L23.5789 702.6L112.849 764.84C112.849 764.84 117.769 688.58 123.499 635.37C129.919 575.72 148.009 522.52 148.009 522.52C148.009 522.52 98.1889 558.47 80.2689 618H80.2589Z" fill="#777777"/>
<path d="M116.899 570.41C94.3388 604.34 112.839 764.84 112.839 764.84C112.839 764.84 117.759 688.58 123.489 635.37C129.909 575.72 147.999 522.52 147.999 522.52C147.999 522.52 132.259 547.33 116.899 570.42V570.41Z" fill="#666666"/>
</g>
<path d="M266.059 743.18C319.051 743.18 362.009 687.135 362.009 618C362.009 548.865 319.051 492.82 266.059 492.82C213.067 492.82 170.109 548.865 170.109 618C170.109 687.135 213.067 743.18 266.059 743.18Z" fill="#DBDBDB"/>
<path d="M216.339 725.08C243.999 707.72 280.399 708.31 311.459 728.3C311.459 728.3 297.069 742.71 264.699 742.71C232.329 742.71 216.339 725.08 216.339 725.08Z" fill="#C1BEBC"/>
<path d="M397.419 0C385.569 47.04 358.329 79.87 326.729 120.58C326.629 120.53 303.979 110.51 267.899 110.51C231.819 110.51 209.079 120.57 209.069 120.58C177.479 79.87 150.239 47.04 138.389 0C85.5089 64.63 46.3989 142.54 62.6789 272.63C79.8689 410 235.169 407.06 267.899 407.06C300.629 407.06 455.929 410 473.119 272.63C489.399 142.54 450.289 64.63 397.409 0H397.419Z" fill="#A3A3A3"/>
<path d="M266.059 384.98C190.299 390.35 128.089 381.75 73.7789 314.93C117.359 409.83 234.529 407.07 267.259 407.07C299.989 407.07 482.979 418.01 476.859 223.96C442.119 356.34 345.979 379.31 266.059 384.98Z" fill="#777777"/>
<path d="M189.829 290.97C201.736 290.97 211.389 281.317 211.389 269.41C211.389 257.503 201.736 247.85 189.829 247.85C177.922 247.85 168.269 257.503 168.269 269.41C168.269 281.317 177.922 290.97 189.829 290.97Z" fill="black"/>
<path d="M345.979 290.97C357.886 290.97 367.539 281.317 367.539 269.41C367.539 257.503 357.886 247.85 345.979 247.85C334.072 247.85 324.419 257.503 324.419 269.41C324.419 281.317 334.072 290.97 345.979 290.97Z" fill="black"/>
<path d="M198.599 265.8C201.073 265.8 203.079 263.794 203.079 261.32C203.079 258.846 201.073 256.84 198.599 256.84C196.125 256.84 194.119 258.846 194.119 261.32C194.119 263.794 196.125 265.8 198.599 265.8Z" fill="white"/>
<path d="M352.199 265.8C354.673 265.8 356.679 263.794 356.679 261.32C356.679 258.846 354.673 256.84 352.199 256.84C349.725 256.84 347.719 258.846 347.719 261.32C347.719 263.794 349.725 265.8 352.199 265.8Z" fill="white"/>
<path d="M266.399 325.61L253.809 313.02C252.469 311.68 253.419 309.39 255.309 309.39H280.489C282.379 309.39 283.329 311.68 281.989 313.02L269.399 325.61C268.569 326.44 267.219 326.44 266.389 325.61H266.399Z" fill="black"/>
<path d="M312.269 344.33C311.949 342.42 310.159 341.14 308.249 341.45C297.739 343.19 286.029 340.14 278.419 333.69C273.899 329.86 271.409 325.23 271.409 320.67C271.409 318.74 269.839 317.17 267.909 317.17C265.979 317.17 264.409 318.74 264.409 320.67C264.409 325.24 261.919 329.86 257.399 333.69C249.789 340.14 238.079 343.19 227.569 341.45C225.659 341.14 223.859 342.43 223.549 344.33C223.229 346.24 224.519 348.04 226.429 348.35C228.819 348.75 231.239 348.94 233.669 348.94C244.069 348.94 254.429 345.39 261.939 339.02C264.389 336.94 266.389 334.65 267.919 332.22C269.449 334.65 271.449 336.95 273.899 339.02C281.399 345.38 291.769 348.94 302.169 348.94C304.589 348.94 307.019 348.75 309.409 348.35C311.319 348.03 312.609 346.23 312.289 344.33H312.269Z" fill="black"/>
<path d="M129.959 60C129.959 60 150.679 104.92 172.239 129.03L149.119 121.85L136.689 135.57L119.599 128.58L103.029 143.86C103.029 111.2 112.349 86.92 129.959 60Z" fill="#DBDBDB"/>
<path d="M405.859 60C405.859 60 385.139 104.92 363.579 129.03L386.699 121.85L399.129 135.57L416.219 128.58L432.789 143.86C432.789 111.2 423.469 86.92 405.859 60Z" fill="#DBDBDB"/>
<path d="M113.959 116.13L103.029 143.86L119.599 128.59L136.689 135.58L149.119 121.85L172.239 129.03L145.619 106.43L134.039 124.81L113.959 116.13Z" fill="#C1BEBC"/>
<path d="M401.279 125.32L387.239 112.55L363.579 129.03L386.699 121.85L399.129 135.57L416.219 128.58L432.789 143.86C432.949 132.1 432.579 120.74 429.279 111.61L401.289 125.32H401.279Z" fill="#C1BEBC"/>
<path d="M402.279 297.25C400.639 297.25 399.179 296.1 398.849 294.43C398.469 292.53 399.709 290.69 401.599 290.32L531.619 264.57C533.519 264.19 535.359 265.43 535.729 267.32C536.109 269.22 534.869 271.06 532.979 271.43L402.959 297.18C402.729 297.23 402.499 297.25 402.279 297.25Z" fill="black"/>
<path d="M522.099 359.84C521.739 359.84 521.379 359.78 521.019 359.67L401.209 320.82C399.369 320.22 398.359 318.25 398.959 316.41C399.559 314.57 401.529 313.56 403.369 314.16L523.179 353.01C525.019 353.61 526.029 355.58 525.429 357.42C524.949 358.9 523.579 359.84 522.099 359.84Z" fill="black"/>
<path d="M133.529 297.25C133.299 297.25 133.079 297.23 132.849 297.18L2.8189 271.43C0.918898 271.05 -0.311102 269.21 0.0688978 267.32C0.448898 265.42 2.2889 264.19 4.1789 264.57L134.199 290.32C136.099 290.7 137.329 292.54 136.949 294.43C136.619 296.1 135.159 297.25 133.519 297.25H133.529Z" fill="black"/>
<path d="M13.7089 359.84C12.2289 359.84 10.8589 358.9 10.3789 357.42C9.77893 355.58 10.7889 353.61 12.6289 353.01L132.439 314.16C134.279 313.56 136.249 314.57 136.849 316.41C137.449 318.25 136.439 320.22 134.599 320.82L14.7889 359.67C14.4289 359.79 14.0689 359.84 13.7089 359.84Z" fill="black"/>
</svg>
